# xmcd
#
# Track frame offsets:
#	150
#	16578
#	30785
#	46938
#	61668
#	74173
#	94288
#	106978
#	119750
#	131470
#
# Disc length: 2002 seconds
#
# Revision: 0
# Processed by: cddbd v1.5.2PL0 Copyright (c) Steve Scherf et al.
# Submitted via: EZCDAudioConverter 1.3.4.1
#
DISCID=7e07d00a
DTITLE=The Heavy - Great Vengeance and Furious Fire
DYEAR=2007
DGENRE=
TTITLE0=That Kind Of Man
TTITLE1=Colleen
TTITLE2=Set Me Free
TTITLE3=You Don't Know
TTITLE4=Girl
TTITLE5=Doing Fine
TTITLE6=In The Morning
TTITLE7=Brukpocket's Lament
TTITLE8=Dignity
TTITLE9=Who Needs The Sunshine?
EXTD=
EXTT0=
EXTT1=
EXTT2=
EXTT3=
EXTT4=
EXTT5=
EXTT6=
EXTT7=
EXTT8=
EXTT9=
PLAYORDER=
